HIERARCHY
ROOT Hips
{
 OFFSET 0.000000 0.000000 0.000000
 CHANNELS 6 Xposition Yposition Zposition Yrotation Xrotation Zrotation
 JOINT Chest
 {
  OFFSET 0.000000 9.585900 0.002600
  CHANNELS 3 Yrotation Xrotation Zrotation
  JOINT Chest2
  {
   OFFSET 0.000000 9.601200 -0.005300
   CHANNELS 3 Yrotation Xrotation Zrotation
   JOINT Chest3
   {
    OFFSET 0.000000 9.561800 0.000000
    CHANNELS 3 Yrotation Xrotation Zrotation
    JOINT Chest4
    {
     OFFSET 0.000000 9.552100 0.000000
     CHANNELS 3 Yrotation Xrotation Zrotation
     JOINT Neck
     {
      OFFSET 0.000000 14.453000 0.000000
      CHANNELS 3 Yrotation Xrotation Zrotation
      JOINT Head
      {
       OFFSET 0.000000 8.936500 -0.011300
       CHANNELS 3 Yrotation Xrotation Zrotation
       End Site
       {
        OFFSET 0.000000 17.073600 -0.006000
       }
      }
     }
     JOINT RightCollar
     {
      OFFSET -2.921100 9.558500 0.000000
      CHANNELS 3 Yrotation Xrotation Zrotation
      JOINT RightShoulder
      {
       OFFSET -13.519700 0.000000 0.000000
       CHANNELS 3 Yrotation Xrotation Zrotation
       JOINT RightElbow
       {
        OFFSET 0.000000 -29.696600 0.000000
        CHANNELS 3 Yrotation Xrotation Zrotation
        JOINT RightWrist
        {
         OFFSET 0.000000 -24.004700 0.000000
         CHANNELS 3 Yrotation Xrotation Zrotation
         End Site
         {
          OFFSET 0.000000 -17.728500 0.000000
         }
        }
       }
      }
     }
     JOINT LeftCollar
     {
      OFFSET 2.921100 9.558500 0.000000
      CHANNELS 3 Yrotation Xrotation Zrotation
      JOINT LeftShoulder
      {
       OFFSET 13.519700 0.000000 0.000000
       CHANNELS 3 Yrotation Xrotation Zrotation
       JOINT LeftElbow
       {
        OFFSET 0.000000 -29.696600 0.000000
        CHANNELS 3 Yrotation Xrotation Zrotation
        JOINT LeftWrist
        {
         OFFSET 0.000000 -24.004700 0.000000
         CHANNELS 3 Yrotation Xrotation Zrotation
         End Site
         {
          OFFSET 0.000000 -17.728500 0.000000
         }
        }
       }
      }
     }
    }
   }
  }
 }
 JOINT RightHip
 {
  OFFSET -7.771700 -0.012900 -0.001300
  CHANNELS 3 Yrotation Xrotation Zrotation
  JOINT RightKnee
  {
   OFFSET 0.000000 -40.869800 0.001200
   CHANNELS 3 Yrotation Xrotation Zrotation
   JOINT RightAnkle
   {
    OFFSET 0.000000 -39.717900 0.002100
    CHANNELS 3 Yrotation Xrotation Zrotation
    JOINT RightToe
    {
     OFFSET 0.000000 -4.965400 11.033500
     CHANNELS 3 Yrotation Xrotation Zrotation
     End Site
     {
      OFFSET 0.000000 -1.423100 5.872300
     }
    }
   }
  }
 }
 JOINT LeftHip
 {
  OFFSET 7.771700 -0.012900 -0.001300
  CHANNELS 3 Yrotation Xrotation Zrotation
  JOINT LeftKnee
  {
   OFFSET 0.000000 -40.869800 0.001200
   CHANNELS 3 Yrotation Xrotation Zrotation
   JOINT LeftAnkle
   {
    OFFSET 0.000000 -39.717900 0.002100
    CHANNELS 3 Yrotation Xrotation Zrotation
    JOINT LeftToe
    {
     OFFSET 0.000000 -4.965400 11.033500
     CHANNELS 3 Yrotation Xrotation Zrotation
     End Site
     {
      OFFSET 0.000000 -1.423100 5.872300
     }
    }
   }
  }
 }
}
MOTION
Frames: 5
Frame Time: 0.008333
0.000000 85.388000 0.000000 0.000000 -5.767877 0.000000 0.000000 11.653817 0.000000 0.000000 -5.885947 0.000000 0.000000 -0.000000 0.000000 0.000000 -0.000000 0.000000 0.000000 12.528835 0.000000 0.000000 0.711642 0.000000 0.000000 -0.000000 0.000000 0.000000 0.000000 -90.000000 0.000000 -2.309062 0.000000 0.000000 2.309062 0.000000 0.000000 -0.000000 0.000000 0.000000 -0.000000 90.000000 0.000000 -2.309062 0.000000 0.000000 2.309062 0.000000 0.000000 8.520406 0.000000 0.000000 1.905762 0.000000 -0.000000 -4.658285 0.000000 0.000000 -0.000000 0.000000 0.000000 8.520406 0.000000 0.000000 1.905762 0.000000 -0.000000 -4.658285 0.000000 0.000000 -0.000000 0.000000
-15.588964 52.046634 31.728106 179.950084 -33.681481 0.868948 1.187907 15.413154 0.211308 0.092129 1.425464 0.063677 0.154879 2.406309 0.106886 0.937408 13.708360 0.697762 -1.386082 23.511486 -0.945570 -1.291348 -0.358146 -0.691203 10.470341 10.630457 12.287394 71.114170 -4.283839 -54.332803 133.188267 -30.099616 -166.307297 6.741710 -10.992384 -7.623545 -13.310063 9.080658 -16.371956 -70.589348 -4.434391 51.975176 -118.917033 -37.423744 167.506910 4.768518 -12.960253 -6.273923 -9.510734 -49.274634 -0.634902 -53.442986 83.769038 -61.652052 -3.371858 -5.617030 6.492358 0.264494 -0.647251 0.103439 8.318559 -46.267838 -7.185119 27.921782 83.879671 32.996635 -3.354640 -11.475200 1.638893 0.155659 0.545178 0.072874
-15.591978 52.046603 31.732643 179.951166 -33.698229 0.874343 1.188319 15.394548 0.208659 0.090750 1.442416 0.062463 0.156691 2.384999 0.106395 0.938319 13.725328 0.698641 -1.378543 23.468454 -0.955326 -1.295520 -0.334322 -0.690164 10.465892 10.627018 12.291645 71.142668 -4.288032 -54.367893 133.180243 -30.102265 -166.314801 6.727092 -10.974005 -7.602984 -13.293077 9.049557 -16.362298 -70.582738 -4.439309 51.949853 -118.905032 -37.415703 167.498507 4.773760 -12.964482 -6.303406 -9.500104 -49.261352 -0.655072 -53.385691 83.774699 -61.593731 -3.365674 -5.618044 6.500869 0.255643 -0.647117 0.099658 8.318857 -46.251333 -7.187112 27.869262 83.874887 32.937541 -3.353928 -11.462256 1.641411 0.155774 0.542046 0.073898
-15.594203 52.048840 31.734526 179.940413 -33.742075 0.878810 1.198407 15.403911 0.211236 0.094922 1.402382 0.063447 0.155261 2.419005 0.106645 0.942268 13.720165 0.700572 -1.373431 23.447402 -0.966176 -1.277521 -0.424162 -0.718610 10.458430 10.641834 12.300148 71.148880 -4.289631 -54.367259 133.182262 -30.117437 -166.319444 6.727031 -10.992405 -7.583097 -13.281509 9.068277 -16.363586 -70.582905 -4.449292 51.950594 -118.893701 -37.409242 167.486353 4.743929 -12.991558 -6.366831 -9.477105 -49.216650 -0.675526 -53.314492 83.776849 -61.514856 -3.364767 -5.617301 6.507191 0.254301 -0.648767 0.096470 8.319071 -46.205936 -7.173933 27.811888 83.873371 32.876907 -3.352573 -11.451879 1.643827 0.156058 0.535331 0.074388
-15.596380 52.049450 31.739469 179.935192 -33.770195 0.877368 1.207181 15.394956 0.218081 0.094233 1.401771 0.064410 0.156075 2.415936 0.106914 0.954470 13.687015 0.701823 -1.375931 23.455894 -0.974340 -1.266477 -0.466891 -0.737872 10.445209 10.697254 12.314816 71.152382 -4.296538 -54.373012 133.187396 -30.125527 -166.323624 6.725643 -11.016825 -7.563541 -13.278771 9.112080 -16.369059 -70.570514 -4.466648 51.983948 -118.892931 -37.431535 167.494907 4.762716 -12.994130 -6.394928 -9.469081 -49.188934 -0.681094 -53.209127 83.785083 -61.403928 -3.380854 -5.615395 6.507979 0.263493 -0.648804 0.098443 8.316164 -46.179092 -7.159369 27.718354 83.873394 32.780200 -3.352609 -11.442566 1.643542 0.157804 0.533260 0.078621
